<svg width="24px" height="24px" viewBox="0 0 24 24" version="1.1" xmlns="http://www.w3.org/2000/svg" xmlns:xlink="http://www.w3.org/1999/xlink">
    <g id="Page-1" stroke="none" stroke-width="1" fill="none" fill-rule="evenodd">
        <g fill="currentColor" fill-rule="nonzero">
            <path d="M16.031,23.237 C15.633,23.237 15.256,22.997 15.1,22.603 C14.898,22.089 15.151,21.508 15.664,21.306 C19.514,19.791 22,16.138 22,12 C22,6.486 17.514,2 12,2 C6.486,2 2,6.486 2,12 C2,16.13 4.48,19.781 8.319,21.302 C8.833,21.505 9.084,22.086 8.881,22.6 C8.678,23.114 8.095,23.364 7.583,23.162 C2.977,21.336 0,16.955 0,12 C0,5.383 5.383,0 12,0 C18.617,0 24,5.383 24,12 C24,16.965 21.016,21.349 16.397,23.168 C16.277,23.215 16.153,23.237 16.031,23.237 Z" id="Path"></path>
            <path d="M9.07,19.359 C8.93,19.359 8.787,19.33 8.652,19.267 C5.826,17.964 4,15.111 4,12 C4,7.589 7.589,4 12,4 C16.411,4 20,7.589 20,12 C20,15.067 18.291,17.816 15.541,19.176 C15.043,19.42 14.445,19.217 14.201,18.723 C13.956,18.228 14.159,17.627 14.654,17.383 C16.718,16.363 18,14.301 18,12 C18,8.691 15.309,6 12,6 C8.691,6 6,8.691 6,12 C6,14.334 7.37,16.474 9.489,17.451 C9.99,17.682 10.209,18.276 9.978,18.778 C9.81,19.145 9.448,19.359 9.07,19.359 Z" id="Path"></path>
            <path d="M15,12 C15,10.346 13.654,9 12,9 C10.346,9 9,10.346 9,12 C9,13.302 9.838,14.401 11,14.815 L11,23 C11,23.553 11.448,24 12,24 C12.552,24 13,23.553 13,23 L13,14.815 C14.161,14.401 15,13.302 15,12 Z M12,13 C11.449,13 11,12.551 11,12 C11,11.449 11.449,11 12,11 C12.551,11 13,11.449 13,12 C13,12.551 12.551,13 12,13 Z" id="Shape"></path>
        </g>
    </g>
</svg>